HIERARCHY
ROOT Hips
{
	OFFSET -0.001795 -0.223333 0.028219
	CHANNELS 6 Xposition Yposition Zposition Zrotation Yrotation Xrotation 
	JOINT LeftUpLeg
	{
		OFFSET 0.069520 -0.091406 -0.006815
		CHANNELS 3 Zrotation Yrotation Xrotation
		JOINT LeftLeg
		{
			OFFSET 0.034277 -0.375199 -0.004496
			CHANNELS 3 Zrotation Yrotation Xrotation
			JOINT LeftFoot
			{
				OFFSET -0.013596 -0.397961 -0.043693
				CHANNELS 3 Zrotation Yrotation Xrotation
				JOINT LeftToe
				{
					OFFSET 0.026358 -0.055791 0.119288
					CHANNELS 3 Zrotation Yrotation Xrotation
					End Site
					{
						OFFSET 0.000000 0.000000 0.000000
					}
				}
			}
		}
	}
	JOINT RightUpLeg
	{
		OFFSET -0.067670 -0.090522 -0.004320
		CHANNELS 3 Zrotation Yrotation Xrotation
		JOINT RightLeg
		{
			OFFSET -0.038290 -0.382569 -0.008850
			CHANNELS 3 Zrotation Yrotation Xrotation
			JOINT RightFoot
			{
				OFFSET 0.015774 -0.398415 -0.042312
				CHANNELS 3 Zrotation Yrotation Xrotation
				JOINT RightToe
				{
					OFFSET -0.025372 -0.048144 0.123348
					CHANNELS 3 Zrotation Yrotation Xrotation
					End Site
					{
						OFFSET 0.000000 0.000000 0.000000
					}
				}
			}
		}
	}
	JOINT Spine
	{
		OFFSET -0.002533 0.108963 -0.026696
		CHANNELS 3 Zrotation Yrotation Xrotation
		JOINT Spine1
		{
			OFFSET 0.005487 0.135180 0.001092
			CHANNELS 3 Zrotation Yrotation Xrotation
			JOINT Spine2
			{
				OFFSET 0.001457 0.052922 0.025425
				CHANNELS 3 Zrotation Yrotation Xrotation
				JOINT Neck
				{
					OFFSET -0.002778 0.213870 -0.042857
					CHANNELS 3 Zrotation Yrotation Xrotation
					JOINT Head
					{
						OFFSET 0.005152 0.064970 0.051349
						CHANNELS 3 Zrotation Yrotation Xrotation
						End Site
						{
							OFFSET 0.000000 0.000000 0.000000
						}
					}
				}
				JOINT LeftShoulder
				{
					OFFSET 0.078845 0.121749 -0.034090
					CHANNELS 3 Zrotation Yrotation Xrotation
					JOINT LeftArm
					{
						OFFSET 0.090977 0.030469 -0.008868
						CHANNELS 3 Zrotation Yrotation Xrotation
						JOINT LeftForeArm
						{
							OFFSET 0.259612 -0.012772 -0.027456
							CHANNELS 3 Zrotation Yrotation Xrotation
							JOINT LeftHand
							{
								OFFSET 0.249234 0.008986 -0.001171
								CHANNELS 3 Zrotation Yrotation Xrotation
								End Site
								{
									OFFSET 0.000000 0.000000 0.000000
								}
							}
						}
					}
				}
				JOINT RightShoulder
				{
					OFFSET -0.081759 0.118833 -0.038615
					CHANNELS 3 Zrotation Yrotation Xrotation
					JOINT RightArm
					{
						OFFSET -0.096012 0.032551 -0.009143
						CHANNELS 3 Zrotation Yrotation Xrotation
						JOINT RightForeArm
						{
							OFFSET -0.253742 -0.013329 -0.021401
							CHANNELS 3 Zrotation Yrotation Xrotation
							JOINT RightHand
							{
								OFFSET -0.255298 0.007772 -0.005559
								CHANNELS 3 Zrotation Yrotation Xrotation
								End Site
								{
									OFFSET 0.000000 0.000000 0.000000
								}
							}
						}
					}
				}
			}
		}
	}
}
MOTION
Frames: 5
Frame Time: 0.050000
-0.021820 0.952843 -0.008594 -2.991236 6.773205 7.212425 9.362699 -0.451757 1.974616 -5.729035 0.392069 -6.506207 17.622771 29.706094 21.151947 0.000000 0.000000 0.000000 -2.260424 1.203170 -15.182269 2.859719 -0.296421 6.593932 -3.159451 -10.363811 14.124321 0.000000 0.000000 0.000000 3.393837 -1.230813 13.603686 8.232563 -1.061729 -26.001194 -5.523564 -18.798104 30.317352 -1.217081 -0.111974 -32.068712 0.000000 0.000000 0.000000 -18.936080 -8.518395 7.496914 -39.814821 -35.405970 3.949456 14.077014 -56.389595 -1.699716 0.000000 0.000000 0.000000 3.723067 11.194572 3.093536 56.125884 23.350246 1.478056 12.664740 48.598824 5.899090 0.000000 0.000000 0.000000 
-0.022143 0.952951 -0.005588 -2.785429 6.577569 7.591456 9.094376 -0.434211 1.861883 -5.929002 0.402912 -6.435506 18.230747 30.368267 21.328073 0.000000 0.000000 0.000000 -2.369595 1.170227 -14.764354 2.813267 -0.287362 5.793603 -2.603530 -9.496811 14.903289 0.000000 0.000000 0.000000 3.198704 -1.161905 13.187662 7.675338 -0.907499 -26.379405 -5.199073 -18.565031 30.835977 -0.213923 -0.647419 -31.910130 0.000000 0.000000 0.000000 -19.925115 -6.270465 6.425454 -42.691598 -29.349975 2.003482 2.168773 -63.000859 5.839784 0.000000 0.000000 0.000000 4.239362 9.849440 2.542844 56.404422 21.166935 0.478763 12.231388 47.867848 5.626544 0.000000 0.000000 0.000000 
-0.022542 0.952536 -0.002197 -2.729169 5.945017 7.518877 9.033656 -0.409351 2.350073 -6.012825 0.419123 -6.363233 18.566194 30.690974 21.655663 0.000000 0.000000 0.000000 -2.065914 1.197179 -14.553325 2.572298 -0.240585 5.457734 -2.684849 -9.768428 15.056794 0.000000 0.000000 0.000000 2.909057 -1.137567 13.582256 7.789149 -0.980983 -25.818596 -5.033796 -17.437230 30.533345 1.722932 -1.543842 -31.459328 0.000000 0.000000 0.000000 -20.520789 -3.467635 4.717946 -44.386370 -21.069293 -0.979541 -20.977911 -69.545143 23.411350 0.000000 0.000000 0.000000 5.693405 7.991593 1.693290 55.975564 18.629468 -0.460000 12.940296 48.992664 6.135670 0.000000 0.000000 0.000000 
-0.022477 0.951472 -0.000063 -2.525280 5.379212 7.670044 8.928307 -0.387964 2.489555 -6.335611 0.450464 -5.975688 18.603281 30.797207 21.258419 0.000000 0.000000 0.000000 -2.424368 1.197127 -14.947506 2.794498 -0.268790 5.784658 -2.640522 -9.688888 14.502116 0.000000 0.000000 0.000000 2.880456 -1.146893 13.871224 7.759477 -0.955847 -26.070095 -5.353392 -16.522136 31.074156 2.691619 -1.930491 -31.903322 0.000000 0.000000 0.000000 -20.552660 -1.276724 3.326603 -45.143388 -14.007159 -3.594817 -48.934651 -72.001201 46.797577 0.000000 0.000000 0.000000 6.022974 6.774439 1.226546 56.534622 17.203925 -1.123303 14.315802 50.052728 7.033356 0.000000 0.000000 0.000000 
-0.021455 0.951381 -0.000074 -2.544735 4.963223 7.766238 9.084206 -0.391680 2.119345 -6.702617 0.493187 -5.243343 19.150214 31.480580 20.935434 0.000000 0.000000 0.000000 -2.535668 1.235694 -15.577532 3.017749 -0.299334 6.117563 -2.594991 -9.664800 14.462091 0.000000 0.000000 0.000000 2.858014 -1.179494 14.382247 7.929830 -0.987965 -26.170337 -5.512802 -15.912044 31.332497 3.582271 -2.294902 -32.276364 0.000000 0.000000 0.000000 -20.971323 0.062372 2.515046 -44.971082 -10.662575 -4.819362 -61.844568 -70.861603 56.785096 0.000000 0.000000 0.000000 6.560510 6.555111 1.089771 56.440416 16.868917 -1.223040 13.755391 49.924338 6.827807 0.000000 0.000000 0.000000 
